<svg width="20" height="19" viewBox="0 0 20 19" fill="none" xmlns="http://www.w3.org/2000/svg">
<path d="M2.55573 1.83711H6.68048L8.00978 5.15338L5.87391 6.57412C5.74813 6.65785 5.64501 6.77126 5.57369 6.90429C5.50238 7.03733 5.46508 7.18587 5.4651 7.33673V7.3569C5.46565 7.39789 5.46749 7.43885 5.47062 7.47972C5.47613 7.55488 5.48531 7.65663 5.50277 7.7822C5.5386 8.02968 5.6075 8.37066 5.74162 8.77213C6.0117 9.57874 6.54085 10.6228 7.57158 11.6512C8.60231 12.6796 9.64866 13.2076 10.4562 13.4771C10.8594 13.6109 11.2003 13.6787 11.4501 13.7154C11.5912 13.735 11.7332 13.7473 11.8755 13.752L11.8874 13.753H11.8948C12.0653 13.7529 12.2334 13.7054 12.3785 13.6159C12.5235 13.5263 12.6407 13.3983 12.717 13.2461L13.3325 12.0178L17.4076 12.6961V16.6558C15.4683 16.9354 10.2302 17.2113 6.11459 13.1049C1.99902 8.99853 2.27462 3.77114 2.55573 1.83711ZM7.36948 7.7822L9.02948 6.67861C9.38018 6.44522 9.63976 6.0986 9.76471 5.6969C9.88966 5.29519 9.87236 4.86283 9.71572 4.47235L8.38643 1.15608C8.25002 0.81593 8.01459 0.524367 7.71052 0.318999C7.40644 0.113632 7.04767 0.00388169 6.68048 0.00390625H2.50796C1.6729 0.00390625 0.887449 0.582283 0.75057 1.48605C0.438227 3.54108 0.0147271 9.61082 4.81562 14.401C9.6165 19.1912 15.6998 18.7677 17.7595 18.457C18.6653 18.3195 19.2449 17.5367 19.2449 16.7035V12.6961C19.245 12.2622 19.0907 11.8423 18.8097 11.5111C18.5286 11.18 18.1389 10.959 17.7099 10.8877L13.6347 10.2103C13.2471 10.1457 12.849 10.2069 12.4988 10.3847C12.1486 10.5625 11.8648 10.8477 11.689 11.1984L11.3711 11.8336C11.2587 11.806 11.1475 11.7739 11.0377 11.7373C10.4681 11.5485 9.67714 11.1599 8.87056 10.3551C8.06398 9.55033 7.67447 8.76113 7.48523 8.19192C7.44004 8.05737 7.40079 7.92062 7.36948 7.7822Z" fill="white"/>
</svg>
