<svg width="16" height="16" viewBox="0 0 16 16" fill="none" xmlns="http://www.w3.org/2000/svg">
<path d="M12.5036 15.9975C11.8488 15.9975 10.9289 15.7607 9.5515 14.9911C7.8765 14.0518 6.58092 13.1846 4.91497 11.523C3.30874 9.91777 2.5271 8.87849 1.43313 6.88781C0.197259 4.64016 0.407934 3.46199 0.643434 2.95845C0.923887 2.35661 1.33786 1.99665 1.87293 1.63938C2.17685 1.44026 2.49847 1.26956 2.83372 1.12946C2.86726 1.11504 2.89846 1.10128 2.92631 1.08887C3.09237 1.01406 3.34397 0.901009 3.66266 1.02178C3.87535 1.10162 4.06523 1.26499 4.36245 1.55853C4.972 2.15969 5.80498 3.49855 6.11227 4.15607C6.31858 4.59923 6.45512 4.89176 6.45545 5.21985C6.45545 5.60396 6.26222 5.90018 6.02773 6.21989C5.98378 6.27993 5.94017 6.3373 5.8979 6.39299C5.64261 6.72846 5.58658 6.82541 5.62349 6.99851C5.6983 7.34639 6.25618 8.38199 7.17302 9.29682C8.08986 10.2116 9.0956 10.7343 9.44483 10.8088C9.62531 10.8474 9.72427 10.789 10.0705 10.5246C10.1201 10.4867 10.1711 10.4475 10.2245 10.4082C10.5821 10.1422 10.8645 9.954 11.2396 9.954H11.2416C11.568 9.954 11.8475 10.0956 12.3104 10.3291C12.9143 10.6337 14.2934 11.4559 14.8982 12.0661C15.1924 12.3627 15.3565 12.5519 15.4367 12.7642C15.5574 13.0839 15.4437 13.3345 15.3696 13.5023C15.3571 13.5301 15.3434 13.5606 15.329 13.5945C15.1878 13.9292 15.0161 14.2501 14.816 14.5533C14.4594 15.0867 14.0981 15.4997 13.495 15.7804C13.1852 15.927 12.8463 16.0012 12.5036 15.9975Z" fill="#121212"/>
</svg>
