<svg width="43" height="43" viewBox="0 0 43 43" fill="none" xmlns="http://www.w3.org/2000/svg">
<path d="M9.625 33.3762L25.4681 25.9827L32.8615 10.1396L17.0184 17.5331L9.625 33.3762ZM21.2433 23.8703C20.6447 23.8703 20.1434 23.6675 19.7392 23.2619C19.3351 22.8564 19.1323 22.355 19.1308 21.7579C19.1294 21.1608 19.3322 20.6595 19.7392 20.2539C20.1462 19.8483 20.6476 19.6455 21.2433 19.6455C21.839 19.6455 22.341 19.8483 22.7494 20.2539C23.1578 20.6595 23.3599 21.1608 23.3557 21.7579C23.3514 22.355 23.1487 22.8571 22.7473 23.2641C22.3459 23.6711 21.8446 23.8731 21.2433 23.8703ZM21.2433 42.882C18.3211 42.882 15.575 42.3272 13.0049 41.2174C10.4348 40.1077 8.19912 38.603 6.29795 36.7032C4.39678 34.8035 2.89204 32.5678 1.78372 29.9963C0.675412 27.4248 0.120552 24.6787 0.119143 21.7579C0.117735 18.8371 0.672595 16.091 1.78372 13.5195C2.89485 10.948 4.39959 8.71236 6.29795 6.81259C8.1963 4.91283 10.4319 3.40809 13.0049 2.29837C15.5778 1.18865 18.3239 0.633789 21.2433 0.633789C24.1626 0.633789 26.9088 1.18865 29.4817 2.29837C32.0546 3.40809 34.2902 4.91283 36.1886 6.81259C38.0869 8.71236 39.5924 10.948 40.7049 13.5195C41.8175 16.091 42.3716 18.8371 42.3674 21.7579C42.3632 24.6787 41.8083 27.4248 40.7028 29.9963C39.5973 32.5678 38.0926 34.8035 36.1886 36.7032C34.2846 38.603 32.049 40.1084 29.4817 41.2196C26.9144 42.3307 24.1682 42.8848 21.2433 42.882ZM21.2433 38.6572C25.961 38.6572 29.957 37.0201 33.2312 33.7458C36.5054 30.4716 38.1426 26.4756 38.1426 21.7579C38.1426 17.0402 36.5054 13.0442 33.2312 9.76997C29.957 6.49573 25.961 4.85861 21.2433 4.85861C16.5255 4.85861 12.5296 6.49573 9.25533 9.76997C5.98109 13.0442 4.34397 17.0402 4.34397 21.7579C4.34397 26.4756 5.98109 30.4716 9.25533 33.7458C12.5296 37.0201 16.5255 38.6572 21.2433 38.6572Z" fill="white"/>
</svg>
