<svg width="16" height="16" viewBox="0 0 16 16" fill="none" xmlns="http://www.w3.org/2000/svg">
<path d="M8.11884 6.88885C9.09867 6.88885 10.0384 7.27809 10.7312 7.97094C11.4241 8.66379 11.8133 9.6035 11.8133 10.5833V15.0167H10.3355V10.5833C10.3356 10.0179 10.1195 9.47387 9.73164 9.06249C9.34375 8.65111 8.81332 8.40351 8.24888 8.37034L8.11884 8.36664C7.55342 8.36661 7.00937 8.58264 6.59799 8.97053C6.18661 9.35842 5.93901 9.88885 5.90584 10.4533L5.90214 10.5833V15.0167H4.42435V10.5833C4.42435 9.6035 4.81359 8.66379 5.50644 7.97094C6.19929 7.27809 7.139 6.88885 8.11884 6.88885ZM3.316 9.10554C3.52289 9.10603 3.72239 9.12919 3.91451 9.175C3.78864 9.55122 3.71383 9.94264 3.6921 10.3388L3.68545 10.5833V10.6469C3.6005 10.6165 3.51216 10.5967 3.4224 10.5878L3.316 10.5833C3.04059 10.5833 2.77505 10.6859 2.57111 10.871C2.36717 11.056 2.23945 11.3104 2.21283 11.5845L2.20765 11.6917V15.0167H0.729858V11.6917C0.729858 11.0058 1.00233 10.348 1.48732 9.86301C1.97232 9.37801 2.63011 9.10554 3.316 9.10554ZM12.9217 9.10554C13.6076 9.10554 14.2654 9.37801 14.7503 9.86301C15.2353 10.348 15.5078 11.0058 15.5078 11.6917V15.0167H14.03V11.6917C14.03 11.4163 13.9275 11.1507 13.7424 10.9468C13.5573 10.7429 13.3029 10.6151 13.0288 10.5885L12.9217 10.5833C12.7916 10.5838 12.6685 10.6048 12.5522 10.6461V10.5833C12.5522 10.0912 12.4724 9.61834 12.3246 9.17648C12.5153 9.12992 12.7163 9.10554 12.9217 9.10554ZM3.316 4.67216C3.80592 4.67216 4.27577 4.86678 4.6222 5.2132C4.96862 5.55963 5.16324 6.02948 5.16324 6.5194C5.16324 7.00932 4.96862 7.47917 4.6222 7.8256C4.27577 8.17202 3.80592 8.36664 3.316 8.36664C2.82608 8.36664 2.35623 8.17202 2.0098 7.8256C1.66338 7.47917 1.46876 7.00932 1.46876 6.5194C1.46876 6.02948 1.66338 5.55963 2.0098 5.2132C2.35623 4.86678 2.82608 4.67216 3.316 4.67216ZM12.9217 4.67216C13.4116 4.67216 13.8814 4.86678 14.2279 5.2132C14.5743 5.55963 14.7689 6.02948 14.7689 6.5194C14.7689 7.00932 14.5743 7.47917 14.2279 7.8256C13.8814 8.17202 13.4116 8.36664 12.9217 8.36664C12.4318 8.36664 11.9619 8.17202 11.6155 7.8256C11.269 7.47917 11.0744 7.00932 11.0744 6.5194C11.0744 6.02948 11.269 5.55963 11.6155 5.2132C11.9619 4.86678 12.4318 4.67216 12.9217 4.67216ZM3.316 6.14995C3.21802 6.14995 3.12405 6.18887 3.05476 6.25816C2.98548 6.32745 2.94655 6.42142 2.94655 6.5194C2.94655 6.61738 2.98548 6.71135 3.05476 6.78064C3.12405 6.84993 3.21802 6.88885 3.316 6.88885C3.41398 6.88885 3.50795 6.84993 3.57724 6.78064C3.64653 6.71135 3.68545 6.61738 3.68545 6.5194C3.68545 6.42142 3.64653 6.32745 3.57724 6.25816C3.50795 6.18887 3.41398 6.14995 3.316 6.14995ZM12.9217 6.14995C12.8237 6.14995 12.7297 6.18887 12.6604 6.25816C12.5911 6.32745 12.5522 6.42142 12.5522 6.5194C12.5522 6.61738 12.5911 6.71135 12.6604 6.78064C12.7297 6.84993 12.8237 6.88885 12.9217 6.88885C13.0197 6.88885 13.1136 6.84993 13.1829 6.78064C13.2522 6.71135 13.2911 6.61738 13.2911 6.5194C13.2911 6.42142 13.2522 6.32745 13.1829 6.25816C13.1136 6.18887 13.0197 6.14995 12.9217 6.14995ZM8.11884 0.23877C8.90271 0.23877 9.65447 0.550161 10.2088 1.10444C10.763 1.65872 11.0744 2.41049 11.0744 3.19436C11.0744 3.97823 10.763 4.73 10.2088 5.28428C9.65447 5.83856 8.90271 6.14995 8.11884 6.14995C7.33496 6.14995 6.5832 5.83856 6.02892 5.28428C5.47464 4.73 5.16324 3.97823 5.16324 3.19436C5.16324 2.41049 5.47464 1.65872 6.02892 1.10444C6.5832 0.550161 7.33496 0.23877 8.11884 0.23877ZM8.11884 1.71656C7.7269 1.71656 7.35102 1.87226 7.07388 2.1494C6.79674 2.42654 6.64104 2.80242 6.64104 3.19436C6.64104 3.5863 6.79674 3.96218 7.07388 4.23932C7.35102 4.51646 7.7269 4.67216 8.11884 4.67216C8.51077 4.67216 8.88665 4.51646 9.16379 4.23932C9.44093 3.96218 9.59663 3.5863 9.59663 3.19436C9.59663 2.80242 9.44093 2.42654 9.16379 2.1494C8.88665 1.87226 8.51077 1.71656 8.11884 1.71656Z" fill="white"/>
</svg>
