<svg width="28" height="26" viewBox="0 0 28 26" fill="none" xmlns="http://www.w3.org/2000/svg">
<path d="M26.3604 24.9375H1.73309M1.73309 11.3924L11.7392 3.38855C12.3942 2.8646 13.208 2.57915 14.0468 2.57915C14.8855 2.57915 15.6994 2.8646 16.3543 3.38855L26.3604 11.3924M18.3566 4.61992V2.15719C18.3566 1.9939 18.4214 1.8373 18.5369 1.72183C18.6523 1.60637 18.8089 1.5415 18.9722 1.5415H22.0507C22.2139 1.5415 22.3705 1.60637 22.486 1.72183C22.6015 1.8373 22.6663 1.9939 22.6663 2.15719V8.31402M4.19583 24.9375V9.54539M23.8977 24.9375V9.54539" stroke="#121212" stroke-width="2" stroke-linecap="round"/>
<path d="M17.7408 24.9373V18.7805C17.7408 17.0394 17.7408 16.1688 17.199 15.6282C16.6597 15.0864 15.7891 15.0864 14.0467 15.0864C12.3043 15.0864 11.435 15.0864 10.8944 15.6282C10.3526 16.1675 10.3526 17.0381 10.3526 18.7805V24.9373M16.5094 9.54525C16.5094 10.1984 16.25 10.8248 15.7881 11.2867C15.3263 11.7485 14.6999 12.008 14.0467 12.008C13.3935 12.008 12.7671 11.7485 12.3053 11.2867C11.8434 10.8248 11.584 10.1984 11.584 9.54525C11.584 8.8921 11.8434 8.26569 12.3053 7.80384C12.7671 7.34199 13.3935 7.08252 14.0467 7.08252C14.6999 7.08252 15.3263 7.34199 15.7881 7.80384C16.25 8.26569 16.5094 8.8921 16.5094 9.54525Z" stroke="#121212" stroke-width="2"/>
</svg>
