<svg width="199" height="40" viewBox="0 0 199 40" fill="none" xmlns="http://www.w3.org/2000/svg">
<path fill-rule="evenodd" clip-rule="evenodd" d="M161.104 38.1882H159.436L159.452 0.67539H164.875L178.307 23.9717L191.765 0.67539H198.047V38.1882H191.765V3.99911L175.663 31.9062L161.104 6.69672V38.1882ZM119.165 0.647461H125.624V25.1494C125.624 26.2503 125.714 27.3675 125.875 28.5034C126.042 29.6369 126.338 30.7262 126.776 31.7643C127.216 32.8 127.814 33.7287 128.582 34.5526C129.627 35.5977 130.826 36.3029 132.173 36.6707C133.274 36.9826 134.398 37.1432 135.553 37.1432C135.811 37.1432 136.07 37.1339 136.33 37.1153C139.002 36.9919 141.353 36.0516 143.38 34.2826C144.791 33.0141 145.866 31.5036 146.606 29.7626C147.349 28.0099 147.723 26.1875 147.723 24.2836V0.647461H149.395V24.23C149.395 26.3853 149.001 28.4312 148.205 30.3864C147.412 32.3438 146.213 34.0522 144.605 35.5162C143.434 36.545 142.147 37.348 140.743 37.9113C139.342 38.4838 137.866 38.8237 136.33 38.947C135.685 39.0006 135.034 39.0285 134.373 39.0285C133.274 39.0285 131.994 38.9307 130.549 38.7236C129.101 38.528 127.59 38.0276 126.017 37.2502C125.007 36.7242 124.069 36.0888 123.222 35.337C122.256 34.4456 121.478 33.461 120.871 32.381C120.27 31.2987 119.835 30.1466 119.565 28.9223C119.297 27.698 119.165 26.4458 119.165 25.1494V0.647461ZM82.5851 38.1882V0.67539H100.437C102.395 0.67539 104.173 1.14789 105.781 2.11382C107.38 3.07043 108.667 4.35754 109.624 5.96587C110.59 7.56488 111.063 9.34313 111.063 11.3006C111.063 13.258 110.59 15.0339 109.624 16.6446C108.667 18.2529 107.38 19.5307 105.781 20.4943C104.173 21.451 102.395 21.9327 100.437 21.9327L112.268 38.1882H104.52L92.689 21.9327H88.8392V38.1882H82.5851ZM88.8392 20.2802H95.8544C98.3379 20.2802 100.447 19.3957 102.206 17.6361C103.959 15.8742 104.834 13.7654 104.834 11.3006C104.834 8.82409 103.959 6.70603 102.206 4.95573C100.447 3.19378 98.3379 2.31864 95.8544 2.31864H88.8392V20.2802ZM42.8402 0.647461H49.3014V25.1494C49.3014 26.2503 49.3899 27.3675 49.5505 28.5034C49.7204 29.6369 50.016 30.7262 50.4535 31.7643C50.8911 32.8 51.4893 33.7287 52.2574 34.5526C53.3048 35.5977 54.5011 36.3029 55.8511 36.6707C56.9497 36.9826 58.0762 37.1432 59.2283 37.1432C59.4867 37.1432 59.7474 37.1339 60.0057 37.1153C62.6777 36.9919 65.0286 36.0516 67.0558 34.2826C68.4687 33.0141 69.5416 31.5036 70.2818 29.7626C71.0243 28.0099 71.399 26.1875 71.399 24.2836V0.647461H73.0702V24.23C73.0702 26.3853 72.6768 28.4312 71.8808 30.3864C71.0871 32.3438 69.8885 34.0522 68.2801 35.5162C67.1094 36.545 65.8222 37.348 64.4187 37.9113C63.0176 38.4838 61.5419 38.8237 60.0057 38.947C59.3633 39.0006 58.7116 39.0285 58.0506 39.0285C56.9497 39.0285 55.6719 38.9307 54.2241 38.7236C52.7764 38.528 51.2658 38.0276 49.6948 37.2502C48.6846 36.7242 47.7443 36.0888 46.8971 35.337C45.9311 34.4456 45.1537 33.461 44.5463 32.381C43.9481 31.2987 43.5105 30.1466 43.2428 28.9223C42.9752 27.698 42.8402 26.4458 42.8402 25.1494V0.647461ZM17.9635 5.15589L9.34466 23.6062H26.4311L17.9635 5.15589ZM5.42974 31.9784L2.54128 38.1882H0.700195L18.1893 0.67539H20.0304L37.5194 38.1882H32.1615L29.4964 31.606L5.42974 31.9784Z" fill="white"/>
</svg>
