<svg width="147" height="14" viewBox="0 0 147 14" fill="none" xmlns="http://www.w3.org/2000/svg">
<path fill-rule="evenodd" clip-rule="evenodd" d="M46.0688 4.53623L48.7967 7.57598L51.3244 4.66423V7.26409L48.7059 9.9361L46.0688 7.02668L44.8795 5.70696H44.8608V13.4344H42.7917V0.875L44.8608 3.18159L44.8795 3.1979L46.0688 4.53623ZM3.54946 2.95583H0.977539V0.893638H3.54946V2.95583ZM4.73651 0.893638H10.5577V2.95583H6.81732V13.4134H4.73651V2.95583V0.893638ZM12.578 13.3762V0.893638H14.6402V5.96764H14.6215V8.52327H14.6402V13.3762H12.578ZM19.4744 0.893638H21.5366V13.3762H19.4744V8.17647H15.8063L15.8249 6.53325H19.4744V0.893638ZM27.5161 8.19511V6.55186H33.2651V8.19511H27.5161ZM24.5415 0.893638H33.2651V2.62764H26.3314V11.6794H33.2651V13.4134H24.5415V0.893638ZM52.5138 3.27237L54.6016 0.875V13.4344H52.5138V6.03748V6.05609V3.27237ZM60.5833 8.19744V6.54953H66.3509V8.19744H60.5833ZM57.5971 0.875H66.3509V2.61369H59.3916V11.6957H66.3509V13.4344H57.5971V0.875ZM72.5143 0.875C73.6478 0.875 74.6975 1.1543 75.6634 1.71524C76.627 2.2785 77.3904 3.03962 77.9514 4.00555C78.5123 4.96915 78.7939 6.01887 78.7939 7.15471C78.7939 8.00891 78.6333 8.81655 78.3075 9.57998C77.9863 10.3434 77.5347 11.0137 76.9529 11.5933C76.3733 12.1752 75.703 12.6244 74.9395 12.9502C74.1761 13.2714 73.3685 13.4344 72.5143 13.4344H68.4667V10.5971H70.3334V11.6957H72.3118C73.557 11.6957 74.6253 11.2558 75.5168 10.376C76.4082 9.48456 76.8528 8.41157 76.8528 7.15471C76.8528 5.89784 76.4082 4.82483 75.5168 3.94037C74.6253 3.05591 73.557 2.61369 72.3118 2.61369H70.3334V3.54703H68.4667V0.875H72.5143ZM86.6424 0.875L93.1059 13.4344H90.9274L89.7543 10.9812L89.0025 9.44266L86.6424 4.55484L84.2427 9.44266L87.8131 9.47991L88.5277 11.0184L83.4932 10.9812L82.2829 13.4344H80.1951L86.6424 0.875ZM97.1628 13.4344H95.075V0.875H97.1628V13.4344ZM103.901 13.4344H98.3545V11.3652H103.901V13.4344ZM108.032 13.4344H105.945V0.875H108.032V13.4344ZM114.771 13.4344H109.222V11.3652H114.771V13.4344ZM118.883 13.3971H116.814V0.875H118.883V13.3971ZM124.442 1.71524C125.407 1.1543 126.459 0.875 127.6 0.875C128.743 0.875 129.797 1.1543 130.768 1.71524C131.738 2.2785 132.506 3.03962 133.067 4.00555C133.628 4.96915 133.91 6.02584 133.91 7.17332C133.91 8.79561 133.358 10.2084 132.262 11.4117C131.163 12.6128 129.806 13.2878 128.196 13.4344V11.6771C129.32 11.5305 130.258 11.03 131.017 10.1758C131.773 9.31931 132.15 8.32079 132.15 7.17332C132.15 5.91412 131.708 4.84114 130.824 3.94969C129.939 3.05825 128.868 2.61369 127.612 2.61369C126.352 2.61369 125.279 3.05825 124.388 3.94969C123.497 4.84114 123.052 5.91412 123.052 7.17332C123.052 8.32079 123.429 9.31931 124.185 10.1758C124.944 11.03 125.882 11.5305 127.006 11.6771V13.4344C125.407 13.2878 124.057 12.6128 122.959 11.4117C121.86 10.2084 121.311 8.79561 121.311 7.17332C121.311 6.02584 121.593 4.96915 122.154 4.00555C122.717 3.03962 123.478 2.2785 124.442 1.71524ZM136.338 0.875L138.425 3.18159L142.948 8.19744V10.6879L138.425 5.68835V13.4344H136.338V0.875ZM144.156 0.875H146.225V13.4344H145.42L144.156 12.0239L144.137 12.0053V9.53344L144.156 9.55205V0.875Z" fill="white"/>
</svg>
