<svg width="27" height="9" viewBox="0 0 27 9" fill="none" xmlns="http://www.w3.org/2000/svg">
<path d="M22.8233 8.27846L26.384 4.63771C26.5021 4.51701 26.5673 4.35436 26.5654 4.18555C26.5636 4.01673 26.4947 3.85557 26.374 3.73753L22.7333 0.176823C22.6433 0.0885157 22.5291 0.0289114 22.4052 0.00556593C22.2814 -0.0177796 22.1533 -0.00381506 22.0374 0.0456894C21.9214 0.0951939 21.8228 0.178009 21.754 0.283636C21.6852 0.389262 21.6493 0.512944 21.6508 0.639L21.6847 3.60329L0.716739 3.83545L0.730907 5.1101L21.6988 4.87615L21.7309 7.84046C21.7321 7.96652 21.7708 8.08937 21.8419 8.19344C21.9131 8.29751 22.0135 8.37811 22.1305 8.42503C22.2475 8.47194 22.3758 8.48306 22.4992 8.45697C22.6225 8.43087 22.7353 8.36875 22.8233 8.27846Z" fill="white"/>
</svg>
