<svg width="23" height="20" viewBox="0 0 23 20" fill="none" xmlns="http://www.w3.org/2000/svg">
<path d="M0.782762 7.00785C1.07154 7.43495 1.40771 7.61672 2.11397 7.75318L9.85049 9.29058C9.92208 9.30441 9.98319 9.31622 10.0063 9.3628C10.031 9.39926 10.0291 9.46274 10.0172 9.52429L8.54941 17.2851C8.42351 17.993 8.46697 18.3727 8.75575 18.7998C9.14189 19.3838 9.83293 19.4326 10.4289 19.0384C10.7466 18.8235 11.0463 18.4255 11.3197 18.0536L22.4077 2.68576C22.9827 1.90575 23.0542 1.2612 22.7163 0.760755C22.3854 0.272556 21.761 0.0989389 20.823 0.341962L2.43028 4.90688C1.98331 5.02201 1.50226 5.15184 1.18454 5.36666C0.596654 5.77288 0.386494 6.42234 0.782678 7.00829" fill="white"/>
</svg>
