<svg width="17" height="18" viewBox="0 0 17 18" fill="none" xmlns="http://www.w3.org/2000/svg">
<path d="M13.8641 12.6748C13.1938 12.6748 12.5941 12.9394 12.1356 13.3539L5.8477 9.69402C5.8918 9.49118 5.92707 9.28835 5.92707 9.0767C5.92707 8.86504 5.8918 8.66221 5.8477 8.45937L12.065 4.83481C12.5412 5.27576 13.1674 5.54914 13.8641 5.54914C15.328 5.54914 16.5097 4.36741 16.5097 2.90348C16.5097 1.43954 15.328 0.257812 13.8641 0.257812C12.4001 0.257812 11.2184 1.43954 11.2184 2.90348C11.2184 3.11513 11.2537 3.31796 11.2978 3.5208L5.08046 7.14536C4.60424 6.70442 3.9781 6.43103 3.28141 6.43103C1.81747 6.43103 0.635742 7.61276 0.635742 9.0767C0.635742 10.5406 1.81747 11.7224 3.28141 11.7224C3.9781 11.7224 4.60424 11.449 5.08046 11.008L11.3595 14.6767C11.3154 14.8619 11.289 15.0559 11.289 15.2499C11.289 16.6698 12.4442 17.825 13.8641 17.825C15.2839 17.825 16.4392 16.6698 16.4392 15.2499C16.4392 13.8301 15.2839 12.6748 13.8641 12.6748ZM13.8641 2.02159C14.3491 2.02159 14.746 2.41844 14.746 2.90348C14.746 3.38852 14.3491 3.78537 13.8641 3.78537C13.379 3.78537 12.9822 3.38852 12.9822 2.90348C12.9822 2.41844 13.379 2.02159 13.8641 2.02159ZM3.28141 9.95858C2.79637 9.95858 2.39952 9.56173 2.39952 9.0767C2.39952 8.59166 2.79637 8.19481 3.28141 8.19481C3.76645 8.19481 4.1633 8.59166 4.1633 9.0767C4.1633 9.56173 3.76645 9.95858 3.28141 9.95858ZM13.8641 16.1494C13.379 16.1494 12.9822 15.7526 12.9822 15.2676C12.9822 14.7825 13.379 14.3857 13.8641 14.3857C14.3491 14.3857 14.746 14.7825 14.746 15.2676C14.746 15.7526 14.3491 16.1494 13.8641 16.1494Z" fill="white"/>
</svg>
