<svg width="17" height="17" viewBox="0 0 17 17" fill="none" xmlns="http://www.w3.org/2000/svg">
<path d="M6.01162 3.16251C7.014 1.36504 7.51479 0.466309 8.264 0.466309C9.0132 0.466309 9.514 1.36504 10.5164 3.16251L10.7759 3.6277C11.0607 4.13878 11.2031 4.39432 11.4246 4.56283C11.6461 4.73134 11.923 4.79384 12.4768 4.91884L12.98 5.03276C14.9262 5.47343 15.8985 5.69337 16.1303 6.43783C16.3613 7.1815 15.6983 7.95761 14.3716 9.50903L14.0282 9.91014C13.6517 10.3508 13.4626 10.5715 13.3779 10.8437C13.2933 11.1166 13.3217 11.4109 13.3787 11.9987L13.4309 12.5343C13.6311 14.6048 13.7316 15.6396 13.1255 16.0992C12.5195 16.5597 11.6081 16.1396 9.78694 15.301L9.31463 15.0842C8.79722 14.8453 8.53852 14.7266 8.264 14.7266C7.98947 14.7266 7.73077 14.8453 7.21336 15.0842L6.74184 15.301C4.91985 16.1396 4.00846 16.5589 3.40324 16.1C2.79643 15.6396 2.89691 14.6048 3.09707 12.5343L3.14928 11.9995C3.20624 11.4109 3.23472 11.1166 3.14928 10.8445C3.06542 10.5715 2.87634 10.3508 2.49976 9.91093L2.1564 9.50903C0.82966 7.9584 0.166685 7.18229 0.397698 6.43783C0.629502 5.69337 1.6026 5.47264 3.54881 5.03276L4.05197 4.91884C4.60498 4.79384 4.88108 4.73134 5.10339 4.56283C5.32491 4.39432 5.46732 4.13878 5.75213 3.6277L6.01162 3.16251Z" fill="#FFC267"/>
</svg>
