<svg width="13" height="10" viewBox="0 0 13 10" fill="none" xmlns="http://www.w3.org/2000/svg">
<path d="M0.822743 3.84565C0.983367 3.68507 1.20119 3.59486 1.42831 3.59486C1.65544 3.59486 1.87326 3.68507 2.03389 3.84565L5.0626 6.87436L11.1183 0.817789C11.1978 0.738208 11.2923 0.67507 11.3962 0.63198C11.5001 0.588889 11.6115 0.56669 11.724 0.56665C11.8365 0.566611 11.9479 0.588731 12.0519 0.631748C12.1558 0.674765 12.2503 0.737836 12.3299 0.817361C12.4095 0.896886 12.4726 0.991306 12.5157 1.09523C12.5588 1.19916 12.581 1.31055 12.581 1.42306C12.5811 1.53556 12.5589 1.64697 12.5159 1.75093C12.4729 1.85489 12.4098 1.94935 12.3303 2.02893L5.0626 9.29664L0.822743 5.05679C0.662167 4.89616 0.57196 4.67834 0.57196 4.45122C0.57196 4.22409 0.662167 4.00627 0.822743 3.84565Z" fill="white"/>
</svg>
