<svg width="21" height="21" viewBox="0 0 21 21" fill="none" xmlns="http://www.w3.org/2000/svg">
<path d="M10.5062 0.364746C15.9412 0.364746 20.3469 4.77042 20.3469 10.2054C20.3469 15.6404 15.9412 20.0461 10.5062 20.0461C8.8313 20.0485 7.18372 19.6216 5.72069 18.8062L5.42055 18.631L2.43686 19.5088C2.27449 19.5567 2.10259 19.5622 1.93746 19.525C1.77233 19.4878 1.61943 19.4091 1.49327 19.2962C1.36711 19.1834 1.27186 19.0401 1.21656 18.8802C1.16125 18.7202 1.14772 18.5487 1.17725 18.3821L1.20284 18.2748L2.08063 15.2911C1.1527 13.7572 0.663252 11.9982 0.665535 10.2054C0.665535 4.77042 5.07121 0.364746 10.5062 0.364746ZM10.5062 2.33288C9.09667 2.33263 7.7129 2.71082 6.49942 3.42797C5.28594 4.14512 4.28726 5.17491 3.60767 6.40982C2.92807 7.64473 2.5925 9.03944 2.63599 10.4483C2.67948 11.8572 3.10044 13.2286 3.8549 14.4192C4.04975 14.7262 4.13339 15.1041 4.06746 15.479L4.02908 15.6395L3.59511 17.1165L5.07219 16.6826C5.49829 16.5566 5.94112 16.6334 6.29244 16.8567C7.32406 17.51 8.49349 17.9142 9.70828 18.0377C10.9231 18.1611 12.1499 18.0002 13.2918 17.5678C14.4337 17.1354 15.4594 16.4433 16.2878 15.5462C17.1162 14.6492 17.7245 13.5717 18.0647 12.399C18.405 11.2263 18.4677 9.99059 18.2481 8.78946C18.0285 7.58833 17.5325 6.45475 16.7993 5.47834C16.0661 4.50192 15.1159 3.70943 14.0237 3.16352C12.9315 2.6176 11.7273 2.33323 10.5062 2.33288ZM7.65439 5.46616C7.76344 5.41946 7.88271 5.40171 8.00063 5.41464C8.11856 5.42757 8.23115 5.47074 8.32749 5.53996C8.82346 5.9021 9.21709 6.38823 9.55561 6.86255L9.8774 7.329L10.028 7.55041C10.1152 7.67732 10.158 7.82947 10.1498 7.98322C10.1416 8.13698 10.0829 8.28372 9.98269 8.40065L9.90889 8.47544L8.99961 9.15051C8.95634 9.18259 8.92593 9.22905 8.91385 9.28153C8.90176 9.33402 8.9088 9.3891 8.93368 9.43687C9.14033 9.81082 9.50542 10.3688 9.92463 10.788C10.3448 11.2072 10.9284 11.5969 11.3279 11.8262C11.4145 11.8754 11.5188 11.8596 11.5897 11.7957L11.6271 11.7514L12.2185 10.851C12.3269 10.7061 12.4873 10.609 12.6659 10.58C12.8444 10.551 13.0273 10.5924 13.176 10.6955L13.7103 11.0685C14.2417 11.4473 14.7525 11.8547 15.1569 12.3714C15.2318 12.4685 15.2793 12.5838 15.2947 12.7054C15.3101 12.827 15.2928 12.9505 15.2445 13.0632C14.8548 13.9724 13.8678 14.7469 12.8424 14.7095L12.6859 14.6997L12.498 14.682L12.3917 14.6682L12.1575 14.6288C11.2482 14.4576 9.7908 13.9419 8.28026 12.4324C6.77069 10.9218 6.25504 9.46443 6.08382 8.55515L6.04445 8.32094L6.01985 8.11625L6.00706 7.94404L6.00312 7.87023C5.96573 6.84287 6.74412 5.85585 7.65439 5.46616Z" fill="#121212"/>
</svg>
