<svg width="28" height="28" viewBox="0 0 28 28" fill="none" xmlns="http://www.w3.org/2000/svg">
<path d="M23.3805 4.73453C22.1388 3.48315 20.6599 2.49097 19.03 1.81585C17.4 1.14073 15.6517 0.796192 13.8868 0.802327C6.49239 0.802327 0.465766 6.81549 0.465766 14.1934C0.465766 16.5582 1.08874 18.8553 2.25344 20.8822L0.357422 27.8278L7.46748 25.963C9.43121 27.0305 11.6387 27.5981 13.8868 27.5981C21.2813 27.5981 27.3079 21.5849 27.3079 14.207C27.3079 10.6261 25.913 7.26141 23.3805 4.73453ZM13.8868 25.3279C11.8825 25.3279 9.91876 24.7874 8.1988 23.774L7.79251 23.5307L3.56711 24.6388L4.69117 20.5309L4.42031 20.112C3.30674 18.3377 2.71544 16.2869 2.7139 14.1934C2.7139 8.05866 7.7248 3.05895 13.8733 3.05895C16.8528 3.05895 19.6562 4.22105 21.7553 6.32903C22.7947 7.36135 23.6184 8.58925 24.1787 9.94156C24.7389 11.2939 25.0246 12.7437 25.0192 14.207C25.0463 20.3417 20.0354 25.3279 13.8868 25.3279ZM20.0083 17.0041C19.6697 16.8419 18.0175 16.0312 17.7195 15.9096C17.408 15.8015 17.1913 15.7474 16.9611 16.0717C16.7309 16.4095 16.0944 17.1662 15.9047 17.3824C15.7151 17.6122 15.512 17.6392 15.1734 17.4635C14.8349 17.3014 13.7514 16.9365 12.4784 15.8015C11.4762 14.9096 10.8126 13.8151 10.6094 13.4773C10.4198 13.1394 10.5824 12.9638 10.7584 12.7881C10.9074 12.6395 11.097 12.3962 11.2595 12.2071C11.422 12.0179 11.4897 11.8692 11.5981 11.653C11.7064 11.4233 11.6523 11.2342 11.571 11.072C11.4897 10.9098 10.8126 9.26129 10.5417 8.58566C10.2709 7.93705 9.98647 8.01812 9.78333 8.00461H9.13327C8.90304 8.00461 8.55092 8.08569 8.23943 8.4235C7.94148 8.76132 7.07473 9.57209 7.07473 11.2206C7.07473 12.8692 8.28006 14.4637 8.44257 14.6799C8.60509 14.9096 10.8126 18.2878 14.1713 19.7337C14.9703 20.085 15.5933 20.2877 16.0808 20.4363C16.8798 20.6931 17.6112 20.6525 18.1935 20.5714C18.8436 20.4769 20.1843 19.7607 20.4552 18.9769C20.7396 18.1932 20.7396 17.5311 20.6448 17.3824C20.55 17.2338 20.3468 17.1662 20.0083 17.0041Z" fill="white"/>
</svg>
